 http://www.imdb.com/title/tt1815862/



One thousand years after cataclysmic events forced humanity's escape from Earth, Nova Prime has become mankind's new home. Legendary General Cypher Raige returns from an extended tour of duty to his estranged family, ready to be a father to his 13-year-old son, Kitai. When an asteroid storm damages Cypher and Kitai's craft, they crash-land on a now unfamiliar and dangerous Earth. As his father lies dying in the cockpit, Kitai must trek across the hostile terrain to recover their rescue beacon. His whole life, Kitai has wanted nothing more than to be a soldier like his father. Today, he gets his chance.



Director:
 M. Night Shyamalan 

Writers:
 Gary Whitta (screenplay), M. Night Shyamalan (screenplay)

Stars:
 Jaden Smith, Will Smith, Sophie Okonedo 

Genres:
  Action |  Adventure |  Sci-Fi 

Country:
 USA 

Language:
 English 



Format                                   : MPEG-4
Format profile                           : Base Media / Version 2
Codec ID                                 : mp42
File size                                : 708 MiB
Duration                                 : 1h 33mn
Overall bit rate                         : 1 060 Kbps

Video
ID                                       : 1
Format                                   : AVC
Format/Info                              : Advanced Video Codec
Format profile                           : Baseline@L3.1
Format settings, CABAC                   : No
Format settings, ReFrames                : 1 frame
Format settings, GOP                     : M=1, N=30
Codec ID                                 : avc1
Codec ID/Info                            : Advanced Video Coding
Duration                                 : 1h 33mn
Source duration                          : 1h 33mn
Bit rate mode                            : Variable
Bit rate                                 : 862 Kbps
Width                                    : 854 pixels
Height                                   : 480 pixels
Display aspect ratio                     : 16:9
Frame rate mode                          : Constant
Frame rate                               : 29.970 fps
Color space                              : YUV
Chroma subsampling                       : 4:2:0
Bit depth                                : 8 bits
Scan type                                : Progressive
Bits/(Pixel*Frame)                       : 0.070
Stream size                              : 576 MiB (81%)
Source stream size                       : 576 MiB (81%)
mdhd_Duration                            : 20074

Audio
ID                                       : 2
Format                                   : AAC
Format/Info                              : Advanced Audio Codec
Format profile                           : LC
Codec ID                                 : 40
Duration                                 : 1h 33mn
Bit rate mode                            : Constant
Bit rate                                 : 192 Kbps
Channel(s)                               : 2 channels
Channel positions                        : Front: L R
Sampling rate                            : 48.0 KHz
Compression mode                         : Lossy
Stream size                              : 130 MiB (18%)
mdhd_Duration                            : 20020




    	http://addpix.net/viewer.php?file=57113036720652348928.jpg
    	http://addpix.net/viewer.php?file=46608495546643947416.jpg
    	http://addpix.net/viewer.php?file=76252311773067390529.jpg
    	http://addpix.net/viewer.php?file=40456370767113217426.jpg
    	http://addpix.net/viewer.php?file=77316982046262315316.jpg
    	http://addpix.net/viewer.php?file=90799930369156704637.jpg